<?xml version="1.0" encoding="UTF-8"?>
<!-- Generated by Pixelmator Pro 3.6.17 -->
<svg width="4610" height="1219" viewBox="0 0 4610 1219" xmlns="http://www.w3.org/2000/svg">
    <g id="Layer-1">
        <g id="Name">
            <g id="Group">
                <g id="g1">
                    <path id="Path" fill="#000000" stroke="#e4271f" stroke-width="70" d="M 166.916061 672.329102 L 166.916061 679.919434 L 151.734863 679.919434 L 151.734863 672.329102 L 151.734863 171.368042 C 151.734863 164.536377 161.604019 161.501343 165.398102 166.814819 L 515.31134 648.799011 L 516.069519 171.368042 L 516.069519 163.777344 L 531.25061 163.777344 L 531.25061 171.368042 L 530.490845 672.329102 C 530.490845 679.1604 520.624939 682.196289 516.827576 676.884338 L 166.916061 194.897827 L 166.916061 672.329102 Z"/>
                    <path id="path1" fill="#000000" stroke="#e4271f" stroke-width="70" d="M 1343.403931 163.777344 L 1350.993652 163.777344 L 1350.993652 178.958496 L 1343.403931 178.958496 L 1001.840271 178.958496 L 1001.840271 414.258423 L 1250.044067 414.258423 L 1257.633911 414.258423 L 1257.633911 429.439514 L 1250.044067 429.439514 L 1001.840271 429.439514 L 1001.840271 664.738342 L 1343.403931 664.738342 L 1350.993652 664.738342 L 1350.993652 679.919434 L 1343.403931 679.919434 L 994.248718 679.919434 C 989.696655 679.919434 986.658936 676.884338 986.658936 672.329102 L 986.658936 429.439514 L 986.658936 414.258423 L 986.658936 171.368042 C 986.658936 166.814819 989.696655 163.777344 994.248718 163.777344 L 1343.403931 163.777344 Z"/>
                    <path id="path2" fill="#000000" stroke="#e4271f" stroke-width="70" d="M 1760.863403 171.368042 L 1760.863403 164.536377 L 1777.564209 164.536377 L 1776.802734 172.127197 L 1776.044678 515.969299 C 1776.044678 597.94458 1850.430786 664.738342 1943.032349 664.738342 C 2035.632324 664.738342 2110.020264 597.94458 2110.020264 515.969299 L 2110.020264 171.368042 L 2110.020264 164.536377 L 2126.717773 164.536377 L 2125.959717 172.127197 L 2125.201416 515.969299 C 2125.201416 605.534912 2044.743408 679.919434 1943.032349 679.919434 C 1841.321533 679.919434 1760.863403 605.534912 1760.863403 515.969299 L 1760.863403 171.368042 Z"/>
                    <path id="path3" fill="#000000" stroke="#e4271f" stroke-width="70" d="M 2815.811523 428.133423 C 2861.045166 462.274719 2894.274902 507.231384 2944.944336 670.052673 L 2947.980225 679.919434 L 2932.04248 679.919434 L 2929.763184 674.605957 C 2876.636719 500.261719 2843.426025 464.593872 2791.593506 429.439514 L 2580.611572 429.439514 L 2580.611572 672.329102 L 2580.611572 679.919434 L 2565.430176 679.919434 L 2565.430176 672.329102 L 2565.801025 428.716858 L 2565.430176 428.680481 L 2565.809326 421.44574 L 2566.186768 172.127197 C 2566.186768 167.573853 2569.222656 164.536377 2573.779785 164.536377 L 2793.895996 163.777344 C 2877.389893 163.777344 2944.944336 223.742249 2944.944336 297.367737 C 2944.944336 363.911926 2888.602295 419.06366 2815.811523 428.133423 Z M 2768.982178 414.347473 L 2768.848877 414.258423 L 2794.657471 414.258423 C 2868.282227 414.258423 2929.763184 362.644531 2929.763184 297.367737 C 2929.763184 231.333008 2868.282227 178.958496 2793.895996 178.958496 L 2580.611572 178.958496 L 2580.611572 414.994995 L 2768.982178 414.347473 Z"/>
                    <path id="path4" fill="#000000" stroke="#e4271f" stroke-width="70" d="M 3763.930908 669.292419 L 3669.587158 454.581177 L 3663.241943 440.169006 L 3543.818115 168.345215 C 3541.523682 163.012695 3532.409424 163.012695 3530.148438 168.345215 L 3410.726074 440.169006 L 3404.379395 454.581177 L 3310.036865 669.292419 L 3305.480225 679.924622 L 3322.154541 679.924622 L 3323.673828 675.368164 L 3420.785156 454.581177 L 3427.097412 440.169006 L 3536.966553 190.353271 L 3646.836182 440.169006 L 3653.148438 454.581177 L 3750.259277 675.368164 L 3751.779053 679.924622 L 3768.486328 679.924622 L 3763.930908 669.292419 Z"/>
                    <path id="path5" fill="#000000" stroke="#e4271f" stroke-width="70" d="M 3669.587158 529.110474 L 3404.379395 529.110474 L 3410.726074 514.698364 L 3663.241943 514.698364 L 3669.587158 529.110474 Z"/>
                    <path id="path6" fill="#000000" stroke="#e4271f" stroke-width="70" d="M 4159.374512 171.368042 L 4159.374512 163.777344 L 4174.555664 163.777344 L 4174.555664 171.368042 L 4174.555664 664.738342 L 4455.39502 664.738342 L 4462.984375 664.738342 L 4462.984375 679.919434 L 4455.39502 679.919434 L 4166.962402 679.919434 C 4162.410156 679.919434 4159.374512 676.884338 4159.374512 672.329102 L 4159.374512 171.368042 Z"/>
                </g>
                <g id="g2">
                    <path id="path7" fill="#000000" stroke="#000000" stroke-width="50" d="M 1171.489868 1115.252563 L 1171.489868 1118.977295 L 1164.040039 1118.977295 L 1164.040039 1115.252563 L 1164.040039 869.450684 C 1164.040039 866.100159 1168.882324 864.608521 1170.743164 867.216797 L 1342.433105 1103.706421 L 1342.805664 869.450684 L 1342.805664 865.727539 L 1350.255249 865.727539 L 1350.255249 869.450684 L 1349.881226 1115.252563 C 1349.881226 1118.60498 1345.040527 1120.093994 1343.178101 1117.488281 L 1171.489868 880.996094 L 1171.489868 1115.252563 Z"/>
                    <path id="path8" fill="#000000" stroke="#000000" stroke-width="50" d="M 1529.007568 869.450684 L 1529.007568 866.100159 L 1537.200562 866.100159 L 1536.828125 869.823364 L 1536.455688 1038.531738 C 1536.455688 1078.75415 1572.953979 1111.529419 1618.390381 1111.529419 C 1663.828247 1111.529419 1700.325195 1078.75415 1700.325195 1038.531738 L 1700.325195 869.450684 L 1700.325195 866.100159 L 1708.518188 866.100159 L 1708.145508 869.823364 L 1707.773071 1038.531738 C 1707.773071 1082.479858 1668.294922 1118.977295 1618.390381 1118.977295 C 1568.485962 1118.977295 1529.007568 1082.479858 1529.007568 1038.531738 L 1529.007568 869.450684 Z"/>
                    <path id="path9" fill="#000000" stroke="#000000" stroke-width="50" d="M 2009.382202 995.434937 C 2031.576294 1012.188538 2047.883179 1034.24585 2072.745605 1114.135132 L 2074.233887 1118.977295 L 2066.411621 1118.977295 L 2065.294189 1116.37085 C 2039.22876 1030.825806 2022.934937 1013.325806 1997.499023 996.075317 L 1893.980103 996.075317 L 1893.980103 1115.252563 L 1893.980103 1118.977295 L 1886.530396 1118.977295 L 1886.530396 1115.252563 L 1886.711792 995.72168 L 1886.530396 995.702698 L 1886.716675 992.155151 L 1886.902832 869.823364 C 1886.902832 867.589233 1888.392822 866.100159 1890.627808 866.100159 L 1998.631348 865.727539 C 2039.597778 865.727539 2072.745605 895.148071 2072.745605 931.273193 C 2072.745605 963.925598 2045.099365 990.985718 2009.382202 995.434937 Z M 1986.405273 988.670105 L 1986.340942 988.627197 L 1999.003784 988.627197 C 2035.128052 988.627197 2065.294189 963.302612 2065.294189 931.273193 C 2065.294189 898.872864 2035.128052 873.175659 1998.631348 873.175659 L 1893.980103 873.175659 L 1893.980103 988.989929 L 1986.405273 988.670105 Z"/>
                    <path id="path10" fill="#000000" stroke="#000000" stroke-width="50" d="M 2315.180664 865.727539 L 2404.190918 865.727539 L 2407.916016 865.727539 L 2407.916016 873.175659 L 2404.190918 873.175659 L 2315.180664 873.175659 L 2315.180664 1115.252563 L 2315.180664 1118.977295 L 2307.73291 1118.977295 L 2307.73291 1115.252563 L 2307.73291 873.175659 L 2217.979248 873.175659 L 2214.25293 873.175659 L 2214.25293 865.727539 L 2217.979248 865.727539 L 2307.73291 865.727539 L 2315.180664 865.727539 Z"/>
                    <path id="path11" fill="#000000" stroke="#000000" stroke-width="50" d="M 2556.878174 869.450684 L 2556.878174 866.100159 L 2565.069336 866.100159 L 2564.698242 869.823364 L 2564.326172 1038.531738 C 2564.326172 1078.75415 2600.824463 1111.529419 2646.262207 1111.529419 C 2691.695557 1111.529419 2728.191895 1078.75415 2728.191895 1038.531738 L 2728.191895 869.450684 L 2728.191895 866.100159 L 2736.386719 866.100159 L 2736.016113 869.823364 L 2735.641846 1038.531738 C 2735.641846 1082.479858 2696.166992 1118.977295 2646.262207 1118.977295 C 2596.352783 1118.977295 2556.878174 1082.479858 2556.878174 1038.531738 L 2556.878174 869.450684 Z"/>
                    <path id="path12" fill="#000000" stroke="#000000" stroke-width="50" d="M 3037.254395 995.434937 C 3059.445068 1012.188538 3075.750244 1034.24585 3100.614258 1114.135132 L 3102.104248 1118.977295 L 3094.283691 1118.977295 L 3093.164795 1116.37085 C 3067.099121 1030.825806 3050.803711 1013.325806 3025.369385 996.075317 L 2921.848877 996.075317 L 2921.848877 1115.252563 L 2921.848877 1118.977295 L 2914.398926 1118.977295 L 2914.398926 1115.252563 L 2914.582031 995.72168 L 2914.398926 995.702698 L 2914.586914 992.155151 L 2914.773193 869.823364 C 2914.773193 867.589233 2916.263184 866.100159 2918.496582 866.100159 L 3026.5 865.727539 C 3067.465088 865.727539 3100.614258 895.148071 3100.614258 931.273193 C 3100.614258 963.925598 3072.969482 990.985718 3037.254395 995.434937 Z M 3014.273926 988.670105 L 3014.208008 988.627197 L 3026.874023 988.627197 C 3062.998291 988.627197 3093.164795 963.302612 3093.164795 931.273193 C 3093.164795 898.872864 3062.998291 873.175659 3026.5 873.175659 L 2921.848877 873.175659 L 2921.848877 988.989929 L 3014.273926 988.670105 Z"/>
                    <path id="path13" fill="#000000" stroke="#000000" stroke-width="50" d="M 3446.954346 865.727539 L 3450.677246 865.727539 L 3450.677246 873.175659 L 3446.954346 873.175659 L 3279.363525 873.175659 L 3279.363525 988.627197 L 3401.143799 988.627197 L 3404.870117 988.627197 L 3404.870117 996.075317 L 3401.143799 996.075317 L 3279.363525 996.075317 L 3279.363525 1111.529419 L 3446.954346 1111.529419 L 3450.677246 1111.529419 L 3450.677246 1118.977295 L 3446.954346 1118.977295 L 3275.635254 1118.977295 C 3273.4021 1118.977295 3271.913574 1117.488281 3271.913574 1115.252563 L 3271.913574 996.075317 L 3271.913574 988.627197 L 3271.913574 869.450684 C 3271.913574 867.216797 3273.4021 865.727539 3275.635254 865.727539 L 3446.954346 865.727539 Z"/>
                </g>
                <path id="path14" fill="#000000" stroke="#000000" stroke-width="30" d="M 933.774719 981.847534 L 151.734863 981.847534 L 151.734863 992.538269 L 933.774719 992.538269 L 933.774719 981.847534 Z"/>
                <path id="path15" fill="#000000" stroke="#000000" stroke-width="30" d="M 4462.984375 981.847534 L 3680.94458 981.847534 L 3680.94458 992.538269 L 4462.984375 992.538269 L 4462.984375 981.847534 Z"/>
            </g>
        </g>
    </g>
</svg>
