<?xml version="1.0" encoding="UTF-8"?>
<!-- Generated by Pixelmator Pro 3.6.17 -->
<svg width="1633" height="1633" viewBox="0 0 1633 1633" xmlns="http://www.w3.org/2000/svg">
    <path id="Path" fill="#000000" stroke="none" d="M 816.619141 0.775391 C 366.014648 0.775391 0.727539 366.0625 0.727539 816.666992 C 0.727539 1267.270508 366.014648 1632.558594 816.619141 1632.558594 C 1267.223633 1632.558594 1632.51123 1267.270508 1632.51123 816.666992 C 1632.51123 366.0625 1267.223633 0.775391 816.619141 0.775391 Z M 252.13623 444.65625 L 389.781738 444.65625 L 608.974609 744.139648 L 608.974609 444.65625 L 761.368652 444.65625 L 761.368652 1015.490234 L 631.310547 1015.490234 L 404.533691 705.706055 L 404.533691 1015.490234 L 252.13623 1015.490234 L 252.13623 444.65625 Z M 1234.052246 1219.869141 L 399.186523 1219.869141 L 399.186523 1119.044922 L 1234.052246 1119.044922 L 1234.052246 1219.869141 Z M 1381.102539 1015.490234 L 1251.043945 1015.490234 L 1024.267578 705.706055 L 1024.267578 1015.490234 L 871.869629 1015.490234 L 871.869629 444.65625 L 1009.515137 444.65625 L 1228.708496 744.139648 L 1228.708496 444.65625 L 1381.102539 444.65625 L 1381.102539 1015.490234 Z"/>
</svg>
